<?xml version="1.0" standalone="no"?>
<!DOCTYPE svg PUBLIC "-//W3C//DTD SVG 1.1//EN" "http://www.w3.org/Graphics/SVG/1.1/DTD/svg11.dtd" >
<svg xmlns="http://www.w3.org/2000/svg" xmlns:xlink="http://www.w3.org/1999/xlink" version="1.1">
<metadata>
Created by FontForge 20201107 at Wed Jun 18 06:41:06 2025
 By 
Copyright (c) 2018 by dealitastudio. All rights reserved
</metadata>
<defs>
<font id="Rusillaserif-Regular" horiz-adv-x="512" >
  <font-face 
    font-family="Rusilla serif"
    font-weight="400"
    font-stretch="normal"
    units-per-em="2048"
    panose-1="0 0 0 0 0 0 0 0 0 0"
    ascent="1536"
    descent="-512"
    x-height="1024"
    cap-height="1024"
    bbox="-682 -444 1837 1397"
    underline-thickness="102"
    underline-position="-255"
    unicode-range="U+000D-E00F"
  />
<missing-glyph 
 />
    <glyph glyph-name=".notdef" 
 />
    <glyph glyph-name="uni0000" horiz-adv-x="0" 
 />
    <glyph glyph-name="uni0000" horiz-adv-x="0" 
 />
    <glyph glyph-name="uni000D" unicode="&#xd;" 
 />
    <glyph glyph-name="space" unicode=" " 
 />
    <glyph glyph-name="exclam" unicode="!" horiz-adv-x="550" 
d="M264 160l-51 829q0 32 17.5 53t45.5 21t45 -20t17 -54l-51 -829h-23zM213 39q0 26 18 44.5t43 18.5q26 0 45 -18.5t19 -44.5q0 -25 -19 -43.5t-45 -18.5q-25 0 -43 18.5t-18 43.5z" />
    <glyph glyph-name="numbersign" unicode="#" horiz-adv-x="1294" 
d="M537 655l-50 -286h279l49 286h-278zM217 322v47h223l49 286h-206v47h215l59 342h47l-59 -342h278l60 338h47l-60 -338h207v-47h-215l-49 -286h199v-47h-207l-60 -347h-47l60 347h-279l-59 -342h-47l59 342h-215z" />
    <glyph glyph-name="parenleft" unicode="(" horiz-adv-x="614" 
d="M438 -74q-125 96 -192.5 252.5t-67.5 333.5q0 181 68 343t186 245v-13q-86 -70 -132 -237.5t-46 -341.5q0 -170 46.5 -327.5t137.5 -241.5v-13z" />
    <glyph glyph-name="parenright" unicode=")" horiz-adv-x="614" 
d="M178 -74v13q230 211 230 569q0 186 -58 338.5t-166 240.5v13q115 -82 184.5 -242.5t69.5 -345.5q0 -182 -68.5 -337t-191.5 -249z" />
    <glyph glyph-name="plus" unicode="+" horiz-adv-x="1171" 
d="M313 553h248v246h51v-246h246v-51h-246v-248h-51v248h-248v51z" />
    <glyph glyph-name="comma" unicode="," horiz-adv-x="548" 
d="M201 61q0 27 18.5 45.5t46.5 18.5q31 0 51.5 -25t20.5 -63q0 -51 -34 -98.5t-89 -47.5v11q31 0 51.5 23t20.5 48q0 27 -25 27t-43 18t-18 43z" />
    <glyph glyph-name="hyphen" unicode="-" horiz-adv-x="749" 
d="M102 553h545v-51h-545v51z" />
    <glyph glyph-name="period" unicode="." horiz-adv-x="329" 
d="M102 61q0 26 18.5 45t43.5 19q26 0 44.5 -19t18.5 -45q0 -25 -18.5 -43t-44.5 -18q-25 0 -43.5 18t-18.5 43z" />
    <glyph glyph-name="zero" unicode="0" horiz-adv-x="966" 
d="M51 512q0 145 57.5 267.5t157 193.5t217.5 71t217.5 -71t157 -193.5t57.5 -267.5t-57.5 -267.5t-157 -193.5t-217.5 -71t-217.5 71t-157 193.5t-57.5 267.5zM162 512q10 -137 60 -254.5t129 -187.5t167 -70q86 0 155 70t103.5 188t24.5 254q-9 136 -59.5 254t-129.5 188
t-166 70q-86 0 -155.5 -70t-104 -188t-24.5 -254z" />
    <glyph glyph-name="one" unicode="1" horiz-adv-x="524" 
d="M102 0v6q52 0 74.5 35t22.5 117v647q0 33 -0.5 49.5t-4 38t-12 30.5t-22.5 9q-19 0 -58 -25v21l127 96h95v-866q0 -82 22.5 -117t75.5 -35v-6h-320z" />
    <glyph glyph-name="two" unicode="2" horiz-adv-x="841" 
d="M137 750h-20q37 141 113.5 213.5t187.5 72.5t182.5 -65.5t71.5 -163.5q0 -56 -20.5 -105.5t-71.5 -115.5l-365 -477h317q78 0 120.5 31.5t68.5 109.5h18l-65 -250h-559l-13 25l377 493q59 77 79 135.5t20 124.5t-52.5 111t-130.5 45q-85 0 -157 -51t-101 -133z" />
    <glyph glyph-name="three" unicode="3" horiz-adv-x="868" 
d="M377 4q114 0 196 91.5t82 217.5q0 121 -77.5 200t-196.5 79q-13 0 -27 -2l-47 -6v18l355 379h-271q-91 0 -151 -30t-101 -97h-16l65 170h527l10 -23l-369 -391q40 6 78 6q162 0 257 -80.5t95 -218.5q0 -149 -107 -243t-276 -94q-79 0 -139.5 23.5t-94.5 62.5t-50.5 83.5
t-16.5 92.5h21q0 -108 72.5 -173t181.5 -65z" />
    <glyph glyph-name="four" unicode="4" horiz-adv-x="882" 
d="M557 942l-414 -641h414v641zM557 270h-455l488 754h92v-723h98v-31h-98v-112q0 -82 22.5 -117t75.5 -35v-6h-319v6q52 0 74 35t22 117v112z" />
    <glyph glyph-name="five" unicode="5" horiz-adv-x="897" 
d="M377 4q122 0 197 84.5t75 216.5q0 125 -70.5 207t-189.5 82q-50 0 -164 -21v19l72 416l18 22h324q47 0 77.5 12t61.5 43h17l-117 -106h-365l-67 -385l67 10q100 14 148 14q144 0 234.5 -83.5t90.5 -215.5q0 -159 -101.5 -249t-281.5 -90q-79 0 -139.5 23.5t-94.5 62.5
t-50.5 83.5t-16.5 92.5h21q0 -108 72.5 -173t181.5 -65z" />
    <glyph glyph-name="six" unicode="6" horiz-adv-x="874" 
d="M207 305q0 -124 64 -214.5t157 -90.5q91 0 155 90.5t64 214.5q0 125 -63.5 214t-155.5 89q-221 0 -221 -303zM702 1028l70 -4v-16q-200 0 -333 -123t-187 -322q79 66 182 66q130 0 224 -96t94 -230q0 -133 -95 -228t-229 -95q-140 0 -233 107.5t-93 293.5q0 97 27 191.5
t79.5 176.5t124 144.5t167 98.5t202.5 36z" />
    <glyph glyph-name="seven" unicode="7" horiz-adv-x="811" 
d="M709 995q-277 -460 -299 -977q-2 -19 -21.5 -30t-52.5 -11q-35 0 -56 11t-20 30q14 225 107.5 459.5t257.5 495.5h-371q-46 0 -74.5 -11.5t-60.5 -43.5h-17l93 106h497z" />
    <glyph glyph-name="eight" unicode="8" horiz-adv-x="841" 
d="M231 299q0 -122 56 -209.5t135 -87.5q78 0 134 87.5t56 209.5t-56 209.5t-134 87.5q-79 0 -135 -87.5t-56 -209.5zM283 821q0 -84 40.5 -144.5t96.5 -60.5q57 0 98 60t41 145t-41 147t-98 62q-56 0 -96.5 -62t-40.5 -147zM102 297q0 114 72.5 201.5t181.5 111.5
q-69 21 -113 79t-44 132q0 93 65 158t156 65q94 0 158.5 -64.5t64.5 -158.5q0 -74 -44 -132.5t-114 -78.5q110 -23 182 -111t72 -202q0 -131 -93.5 -224t-225.5 -93q-131 0 -224.5 93.5t-93.5 223.5z" />
    <glyph glyph-name="nine" unicode="9" horiz-adv-x="874" 
d="M668 711q0 124 -64.5 214.5t-157.5 90.5q-91 0 -155 -90.5t-64 -214.5q0 -125 63.5 -214t155.5 -89q222 0 222 303zM174 -8h-72v16q195 0 328 113.5t193 331.5q-79 -66 -183 -66q-130 0 -223.5 96t-93.5 230q0 133 94.5 228t228.5 95q140 0 233 -108t93 -297
q0 -174 -79.5 -321t-217.5 -232.5t-301 -85.5z" />
    <glyph glyph-name="colon" unicode=":" horiz-adv-x="548" 
d="M213 313q0 26 18 45t43 19q26 0 45 -19t19 -45q0 -25 -19 -43t-45 -18q-25 0 -43 18t-18 43zM213 729q0 26 18 45t43 19q26 0 45 -19t19 -45q0 -25 -19 -43t-45 -18q-25 0 -43 18t-18 43z" />
    <glyph glyph-name="semicolon" unicode=";" horiz-adv-x="548" 
d="M213 313q0 26 19 45t47 19q31 0 51 -25t20 -63q0 -51 -34 -98.5t-89 -47.5v11q31 0 51.5 23t20.5 48q0 27 -25 27t-43 18t-18 43zM213 729q0 25 18 43.5t43 18.5q26 0 45 -18.5t19 -43.5q0 -23 -19 -41t-45 -18q-25 0 -43 18t-18 41z" />
    <glyph glyph-name="question" unicode="?" horiz-adv-x="888" 
d="M365 39q0 26 18 44.5t43 18.5q26 0 44.5 -18.5t18.5 -44.5q0 -25 -18.5 -43.5t-44.5 -18.5q-25 0 -43 18.5t-18 43.5zM410 176q0 87 17 148t71 165q56 110 78 182t22 148q0 205 -147 205q-74 0 -109 -52.5t-35 -164.5q0 -33 -15 -52.5t-42 -19.5q-57 0 -57 82
q0 97 76 162t190 65q117 0 190.5 -70.5t73.5 -180.5q0 -63 -30 -127.5t-107 -167.5q-146 -196 -146 -322h-30z" />
    <glyph glyph-name="A" unicode="A" horiz-adv-x="854" 
d="M397 895l-168 -512h346zM516 936l348 -999q64 -184 134 -247t208 -63v-10q-91 0 -154.5 8.5t-114 28t-86 56t-63 86.5t-53.5 126l-151 440h-361l-63 -194q-13 -36 -17 -62.5t2 -50.5t30.5 -36.5t68.5 -12.5v-6h-219v6q62 0 98 113l264 807q-66 177 -140.5 259.5
t-168.5 82.5q-118 0 -203 -115h-10q86 143 258 143q75 0 139 -29.5t111.5 -81.5t82 -113.5t60.5 -135.5z" />
    <glyph glyph-name="B" unicode="B" horiz-adv-x="878" 
d="M459 506h-113v-486h125q124 0 188 57t64 167q0 122 -71 192t-193 70zM293 1241q-180 0 -285.5 -113t-105.5 -276q0 -139 74 -238.5t180 -99.5v-10q-155 0 -247.5 96t-92.5 244q0 175 129.5 295.5t345.5 120.5q221 0 371.5 -125t150.5 -310q0 -120 -66 -202t-176 -107
q277 -35 277 -262q0 -129 -87.5 -191.5t-268.5 -62.5h-369v6q52 0 75 37t23 119v704q0 82 -22.5 117t-75.5 35v6h321v-6q-53 0 -75.5 -35t-22.5 -117v-344h121q101 0 157 75t56 218q0 197 -104.5 311.5t-282.5 114.5z" />
    <glyph glyph-name="C" unicode="C" horiz-adv-x="907" 
d="M31 453q0 224 98 411t273 296.5t389 109.5q127 0 227 -35q32 -8 41 -8q24 0 24 22h13v-170h-13q0 71 -30 105q-27 30 -90.5 47.5t-133.5 17.5q-131 0 -253 -66t-210.5 -175t-142 -255.5t-53.5 -301.5q0 -211 94.5 -385t255.5 -272.5t352 -98.5q305 0 476 258h10
q-57 -143 -192.5 -234.5t-338.5 -91.5q-162 0 -308.5 63t-254 171.5t-170.5 262.5t-63 329z" />
    <glyph glyph-name="D" unicode="D" horiz-adv-x="1054" 
d="M311 1262q146 0 274 -46.5t223.5 -131.5t150.5 -215t55 -287q0 -265 -145.5 -423.5t-387.5 -158.5h-360v6q53 0 75.5 35t22.5 117v708q0 82 -22.5 117t-75.5 35v6h321v-6q-53 0 -75.5 -35t-22.5 -117v-846h113q191 0 311.5 150.5t120.5 404.5q0 153 -47 280t-128 210.5
t-187.5 129.5t-225.5 46q-193 0 -316.5 -111.5t-123.5 -293.5q0 -89 29 -169.5t94.5 -137t154.5 -56.5v-10q-16 -4 -53 -4q-44 0 -88 12t-86.5 39.5t-75 66.5t-52.5 98.5t-20 131.5q0 203 148.5 329t398.5 126z" />
    <glyph glyph-name="E" unicode="E" horiz-adv-x="919" 
d="M61 0v6q52 0 74.5 35t22.5 117v708q0 82 -22.5 117t-74.5 35v6h668l109 -299h-17q-60 154 -129.5 216.5t-179.5 62.5h-229v-484h143q82 0 117 32t35 107h16v-299h-16q0 75 -35 107.5t-117 32.5h-143v-475q208 0 311 -60l258 -151q68 -40 104 -58.5t95.5 -35.5t124.5 -17
q77 0 137 48.5t88 133.5h10q-35 -125 -106.5 -191.5t-171.5 -66.5q-134 0 -340 123l-230 135q-108 64 -199.5 89.5t-189.5 25.5h-113z" />
    <glyph glyph-name="F" unicode="F" horiz-adv-x="675" 
d="M61 0v6q52 0 74.5 35t22.5 117v708q0 82 -22.5 117t-74.5 35v6h113q61 0 108.5 11t104.5 42l197 105q220 117 327.5 158.5t190.5 41.5q213 0 287 -208h-11q-59 118 -213 118q-71 0 -159.5 -27.5t-143.5 -54t-139 -71.5q-134 -71 -233.5 -99t-206.5 -28v-439h143
q82 0 117 32.5t35 107.5h16v-299h-16q0 75 -35 107t-117 32h-143v-395q0 -82 22 -117t74 -35v-6h-318z" />
    <glyph glyph-name="G" unicode="G" horiz-adv-x="1275" 
d="M41 539q0 177 78.5 326t214 235t295.5 86q99 0 176.5 -20t163.5 -72q25 -17 39 -17q12 0 16 15t4 61h21v-256h-21q0 64 -31.5 116t-82.5 84t-111.5 49t-122.5 17q-228 0 -367 -170t-139 -446q0 -277 142.5 -439.5t385.5 -162.5q131 0 205 61.5t74 167.5v170
q0 96 -16.5 122t-77.5 26h-197v22h520v-22q-61 0 -78.5 -27t-17.5 -121v-399h-16q0 80 -64 80q-41 0 -108 -39q-106 -62 -242 -62q-285 0 -464 171.5t-179 443.5z" />
    <glyph glyph-name="H" unicode="H" horiz-adv-x="1146" 
d="M96 541h64v325q0 81 -23 116.5t-76 35.5v6h320v-6q-52 0 -74 -35t-22 -117v-325h393q21 0 34 0.5t38 2.5t42 7.5t34.5 14.5t26.5 24.5t9 36.5v239q0 82 -22 117t-74 35v6h319v-6q-53 0 -75.5 -35t-22.5 -117v-708q0 -82 22.5 -117t75.5 -35v-6h-319v6q52 0 74 35t22 117
v417q-9 -33 -30 -54.5t-52 -31t-59 -13t-64 -3.5h-372v-315q0 -82 22 -117t74 -35v-6h-320v6q53 0 76 35.5t23 116.5v315h-58q-31 0 -55.5 -2t-54.5 -10t-49.5 -21t-33 -37.5t-13.5 -58.5q0 -40 14 -68h-10q-25 39 -25 84q0 84 67 132.5t154 48.5z" />
    <glyph glyph-name="I" unicode="I" horiz-adv-x="442" 
d="M61 0v6q52 0 74.5 35t22.5 117v708q0 82 -22.5 117t-74.5 35v6h320v-6q-53 0 -75.5 -35t-22.5 -117v-708q0 -82 22.5 -117t75.5 -35v-6h-320z" />
    <glyph glyph-name="J" unicode="J" horiz-adv-x="442" 
d="M283 866v-655q0 -247 -136 -395t-360 -148q-198 0 -333.5 113t-135.5 295q0 137 74 237.5t162 100.5v-11q-73 0 -143 -96.5t-70 -228.5q0 -171 122 -280t304 -109q183 0 287 115.5t104 320.5v741q0 152 -97 152v6h320v-6q-98 0 -98 -152z" />
    <glyph glyph-name="K" unicode="K" horiz-adv-x="870" 
d="M61 0v6q52 0 74.5 35t22.5 117v708q0 82 -22.5 117t-74.5 35v6h318v-6q-52 0 -74 -35t-22 -117v-305l280 357q33 41 33 69q0 31 -47 31v6h201v-6q-82 0 -168 -111l-242 -311l584 -700q103 -122 170 -166.5t149 -44.5q85 0 129 30v-10q-79 -63 -198 -63q-208 0 -357 184
l-534 661v-329q0 -82 22 -117t74 -35v-6h-318z" />
    <glyph glyph-name="L" unicode="L" horiz-adv-x="581" 
d="M61 0v6q52 0 74.5 35t22.5 117v708q0 82 -22.5 117t-74.5 35v6h318v-6q-52 0 -74 -35t-22 -117v-833q111 0 229 -56l162 -92q161 -97 257 -133.5t169 -36.5q205 0 295 222h8q-51 -169 -124.5 -239.5t-197.5 -70.5q-77 0 -173.5 33t-252.5 123l-239 139q-72 42 -128 60
t-141 18h-86z" />
    <glyph glyph-name="M" unicode="M" horiz-adv-x="1255" 
d="M276 1067l388 -823l307 780h223v-6q-53 0 -75.5 -35t-22.5 -117v-708q0 -82 22.5 -117t75.5 -35v-6h-320v6q52 0 74.5 35t22.5 117v798l-295 -739l125 -278q64 -141 108.5 -199.5t100.5 -73.5q24 -8 57 -8q39 0 82 12v-10q-60 -29 -133 -29q-65 0 -117.5 20.5t-93 62
t-69.5 87t-60 111.5l-496 1065v-819q0 -81 23 -116.5t76 -35.5v-6h-218v6q52 0 74.5 35t22.5 117v866l-64 127q-50 97 -102.5 129.5t-159.5 32.5v10q325 0 444 -256z" />
    <glyph glyph-name="N" unicode="N" horiz-adv-x="1116" 
d="M240 1055l694 -987v798q0 82 -22 117t-74 35v6h217v-6q-53 0 -76 -35.5t-23 -116.5v-829l27 -39q153 -227 293 -227q42 0 119 24l2 -10q-57 -31 -96.5 -42t-90.5 -11q-62 0 -110 13.5t-89 44t-72.5 66t-72.5 93.5l-686 975v-766q0 -81 23 -116.5t76 -35.5v-6h-218v6
q52 0 74.5 35t22.5 117v798l-27 37q-135 187 -232 272t-175 85q-50 0 -93.5 -29.5t-60.5 -75.5h-10q15 59 74 95t147 36q119 0 230 -76.5t229 -244.5z" />
    <glyph glyph-name="O" unicode="O" horiz-adv-x="1179" 
d="M31 504q0 150 73.5 274t202 195t283.5 71t283.5 -71t202 -195t73.5 -274q0 -224 -160 -374t-399 -150t-399 150t-160 374zM633 0q169 0 277 127.5t108 325.5q0 150 -63.5 282t-172.5 210.5t-235 78.5q-166 0 -275.5 -131t-109.5 -332q0 -150 63 -279.5t171.5 -205.5
t236.5 -76z" />
    <glyph glyph-name="P" unicode="P" horiz-adv-x="829" 
d="M268 1223q-178 0 -290.5 -112t-112.5 -277q0 -90 34 -175t89.5 -137.5t115.5 -52.5v-10q-143 0 -232 99t-89 251q0 186 132 309t351 123q144 0 263.5 -54.5t189 -153.5t69.5 -222q0 -69 -22.5 -132t-68.5 -118t-127 -88t-187 -33h-98v-282q0 -27 0.5 -42t5.5 -39t15 -37
t29.5 -23.5t47.5 -10.5v-6h-322v6q28 0 48 10.5t29.5 23.5t14.5 37t6 39t1 42v708q0 27 -1 42t-6 39t-14.5 37t-29.5 23.5t-48 10.5v6h322v-6q-28 0 -47.5 -10.5t-29.5 -23.5t-15 -37t-5.5 -39t-0.5 -42v-405h86q65 0 115.5 20.5t80.5 53t49 78t26 89t7 93.5
q0 187 -99 307.5t-282 120.5z" />
    <glyph glyph-name="Q" unicode="Q" horiz-adv-x="1179" 
d="M465 39l305 -12q114 45 181 158.5t67 267.5q0 150 -63.5 282t-172.5 210.5t-235 78.5q-166 0 -275.5 -131t-109.5 -332q0 -175 84 -318t219 -204zM31 524q0 141 73.5 260.5t202.5 189.5t283 70q155 0 283.5 -71t202 -195t73.5 -274q0 -168 -94.5 -299t-251.5 -189
q116 -64 135 -75l166 -99q245 -145 424 -145q112 0 180.5 54t118.5 179h10q-41 -155 -120 -229t-204 -74q-112 0 -218 33.5t-232 108.5l-287 170q-72 45 -114 45h-87q-106 0 -206 43.5t-174 116t-119 173t-45 207.5z" />
    <glyph glyph-name="R" unicode="R" horiz-adv-x="851" 
d="M268 1223q-179 0 -291 -109.5t-112 -273.5q0 -137 73 -240.5t166 -103.5v-11q-145 0 -233 90t-88 240q0 185 131.5 305.5t351.5 120.5q144 0 263.5 -52.5t189 -146.5t69.5 -211q0 -133 -86 -233.5t-227 -118.5q119 -27 164 -110l170 -326q90 -171 172.5 -240t194.5 -69
q72 0 127.5 30.5t99.5 110.5h10q-70 -225 -297 -225q-122 0 -218.5 68t-176.5 219l-225 430q-37 69 -75 88.5t-136 19.5v-317q0 -27 0.5 -42t5.5 -39t15 -37t29.5 -23.5t47.5 -10.5v-6h-322v6q28 0 48 10.5t29.5 23.5t14.5 37t6 39t1 42v708q0 27 -1 42t-6 39t-14.5 37
t-29.5 23.5t-48 10.5v6h322v-6q-28 0 -47.5 -10.5t-29.5 -23.5t-15 -37t-5.5 -39t-0.5 -42v-370h123q112 0 176.5 95t64.5 234q0 109 -41 197.5t-129.5 144.5t-210.5 56z" />
    <glyph glyph-name="S" unicode="S" horiz-adv-x="1105" 
d="M334 932q0 -86 80 -161t256 -157q225 -104 317 -212.5t92 -270.5q0 -224 -142 -364t-368 -140q-150 0 -273.5 63t-194 171.5t-70.5 238.5q0 151 89.5 259t223.5 108v-10q-121 0 -201 -101.5t-80 -240.5q0 -185 143 -309.5t351 -124.5q185 0 297.5 100.5t112.5 259.5
q0 304 -430 485q-150 62 -233 140t-83 184q0 119 99 202t249 83q89 0 165 -31.5t122 -85.5q22 -27 35 -27q14 0 14 49h19v-209h-19q0 136 -93 212.5t-232 76.5q-115 0 -180.5 -52t-65.5 -136z" />
    <glyph glyph-name="T" unicode="T" horiz-adv-x="481" 
d="M-244 1020v10q44 -8 82 -8q76 0 164 37q96 39 248 129q71 42 107 62t105.5 53.5t120.5 50t120.5 30t136.5 13.5q72 0 137 -14t124 -44.5t103.5 -84t67.5 -126.5h-10q-53 91 -151 138t-212 47q-99 0 -214 -42t-300 -145l-82 -45v-923q0 -27 0.5 -42t5.5 -39t14.5 -37
t28.5 -23.5t47 -10.5v-6h-317v6q28 0 47 10.5t28.5 23.5t14.5 37t5.5 39t0.5 42v866q-93 -35 -205 -35q-102 0 -217 31z" />
    <glyph glyph-name="U" unicode="U" horiz-adv-x="1150" 
d="M991 362q0 -189 -105 -290t-304 -101q-198 0 -311 96t-113 265v397q0 188 -16 295.5t-53.5 164t-106.5 79.5q-37 12 -74 12q-17 0 -45 -4v10q30 6 63 6q158 0 257.5 -125.5t99.5 -326.5v-516q0 -150 91 -237t247 -87q161 0 254.5 92t93.5 250v524q0 82 -22.5 117
t-74.5 35v6h218v-6q-53 0 -76 -35.5t-23 -116.5v-504z" />
    <glyph glyph-name="V" unicode="V" horiz-adv-x="1081" 
d="M215 1006l363 -967l305 813q24 73 24 96q0 70 -123 70v6h254v-6q-60 0 -106 -98l-344 -912l37 -98q21 -56 35.5 -90.5t42.5 -82t56 -74t71 -46.5t94 -20q29 0 53 6v-11q-37 -16 -100 -16q-142 0 -240 84.5t-152 230.5l-381 1022q-90 241 -167 340t-170 99
q-111 0 -201 -123h-10q43 72 108.5 110.5t147.5 38.5q129 0 231.5 -94.5t171.5 -277.5z" />
    <glyph glyph-name="W" unicode="W" horiz-adv-x="1718" 
d="M922 1081l350 -944l260 715q14 38 14 74q0 92 -114 92v6h254v-6q-33 0 -61.5 -26t-45.5 -72l-295 -814l43 -120q61 -171 133 -244.5t178 -73.5q27 0 39 4v-10q-22 -14 -80 -14q-140 0 -244.5 82t-162.5 237l-332 889l-313 -856h-64l-364 930q-44 92 -105 92v6h377v-6
q-64 0 -93.5 -18t-29.5 -56q0 -31 23 -92l282 -721l277 752l-39 102q-70 185 -150 268.5t-186 83.5q-127 0 -201 -108h-10q87 147 285 147q265 0 375 -299z" />
    <glyph glyph-name="X" unicode="X" horiz-adv-x="1167" 
d="M313 938l295 -371l256 318q49 60 49 94q0 39 -67 39v6h282v-6q-112 0 -215 -107l-290 -360l419 -528q173 -218 295 -218q68 0 117 64h10q-20 -48 -79 -76.5t-138 -28.5q-176 0 -332 197l-403 510l-254 -317q-59 -70 -59 -109t67 -39v-6h-260v6q37 0 72 14.5t67 43.5
t52.5 51.5t48.5 58.5l252 313l-260 330q-69 87 -108.5 135t-98 112.5t-99 98t-87 58t-85.5 24.5q-62 0 -111 -49.5t-77 -134.5l-8 -4q23 104 95 169.5t181 65.5q114 0 217.5 -81t255.5 -273z" />
    <glyph glyph-name="Y" unicode="Y" horiz-adv-x="1183" 
d="M193 1069l413 -518l268 334q17 23 27.5 39.5t17.5 35.5t3.5 30.5t-20 19.5t-48.5 8v6h291v-6q-118 0 -221 -111l-299 -368v-381q0 -27 0.5 -42t5.5 -39t15 -37t29.5 -23.5t47.5 -10.5v-6h-320v6q28 0 47 10.5t28.5 23.5t14.5 37t6 39t1 42v307l-385 481
q-136 171 -219.5 236t-167.5 65q-82 0 -138.5 -52t-83.5 -136h-10q22 113 108.5 173t205.5 60q205 0 383 -223z" />
    <glyph glyph-name="Z" unicode="Z" horiz-adv-x="868" 
d="M49 0l-16 20l692 981h-363q-108 0 -179.5 -71.5t-133.5 -229.5h-16l112 324h709l14 -33l-688 -977q155 -2 338 -26t258 -56q31 -13 107 -64.5t148 -100t167 -88t172 -39.5q107 0 197.5 75.5t138.5 182.5h12q-48 -154 -153.5 -248t-257.5 -94q-76 0 -156.5 26t-150 67.5
t-128 83t-115 84t-85.5 58.5q-94 51 -271 88t-350 37h-2z" />
    <glyph glyph-name="a" unicode="a" horiz-adv-x="899" 
d="M395 870l-180 -508h358zM227 0h-217v6q29 0 52.5 23t37.5 63l328 932h43l324 -920q36 -98 94 -98v-6h-328v6q76 0 95.5 30t-7.5 107l-69 199h-371l-70 -199q-27 -77 -7.5 -107t95.5 -30v-6z" />
    <glyph glyph-name="b" unicode="b" horiz-adv-x="796" 
d="M377 512h-113v-492h125q128 0 190 55t62 175q0 126 -67 194t-197 68zM377 1004h-113v-478h113q103 0 147.5 57.5t44.5 188.5q0 128 -43.5 180t-148.5 52zM410 0h-369v6q53 0 75.5 35t22.5 117v708q0 82 -22.5 117t-75.5 35v6h346q148 0 227.5 -66.5t79.5 -189.5
q0 -101 -54.5 -164.5t-156.5 -83.5q133 -17 208 -87.5t75 -182.5q0 -123 -92.5 -186.5t-263.5 -63.5z" />
    <glyph glyph-name="c" unicode="c" horiz-adv-x="974" 
d="M31 504q0 145 72.5 269.5t196 197.5t267.5 73q101 0 183 -43q35 -16 51 -16q35 0 35 57h16v-268h-16q0 106 -83 178t-204 72q-170 0 -279.5 -144.5t-109.5 -367.5q0 -140 59.5 -258.5t158 -186t210.5 -67.5q122 0 210 75t95 191h10l31 -88q-130 -198 -371 -198
q-154 0 -277 73.5t-189 193t-66 257.5z" />
    <glyph glyph-name="d" unicode="d" horiz-adv-x="978" 
d="M377 1004h-113v-984h113q213 0 329.5 122t116.5 372q0 244 -113 367t-333 123zM401 0h-360v6q53 0 75.5 35t22.5 117v708q0 82 -22.5 117t-75.5 35v6h360q252 0 399.5 -138t147.5 -372q0 -161 -73 -279t-195.5 -176.5t-278.5 -58.5z" />
    <glyph glyph-name="e" unicode="e" horiz-adv-x="899" 
d="M41 0v6q52 0 74 35t22 117v708q0 82 -22 117t-74 35v6h668l108 -299h-16q-60 154 -129.5 216.5t-179.5 62.5h-230v-482h144q82 0 116.5 32.5t34.5 107.5h16v-300h-16q0 75 -34.5 107.5t-116.5 32.5h-144v-482h264q102 0 181 79t145 247h16l-125 -346h-702z" />
    <glyph glyph-name="f" unicode="f" horiz-adv-x="780" 
d="M41 0v6q52 0 74 35t22 117v708q0 82 -22 117t-74 35v6h668l41 -299h-17q-13 67 -23.5 108t-26 75t-31 50.5t-44 28t-59.5 14.5t-82 3h-205v-525h144q82 0 116.5 32t34.5 107h16v-299h-16q0 75 -34.5 107.5t-116.5 32.5h-144v-301q0 -82 22 -117t74 -35v-6h-317z" />
    <glyph glyph-name="g" unicode="g" horiz-adv-x="1048" 
d="M31 504q0 143 68.5 267.5t186.5 198.5t257 74q132 0 229 -51q24 -12 41 -12q23 0 23 29h16v-236h-16q0 64 -6.5 94t-26.5 54q-35 44 -111.5 73t-156.5 29q-168 0 -274.5 -144t-106.5 -368q0 -129 55.5 -247.5t150 -191.5t201.5 -73q92 0 165 44t73 99v136
q0 84 -29.5 120.5t-95.5 36.5v6h354v-6q-29 0 -49.5 -10.5t-30.5 -23.5t-15.5 -38t-6 -40.5t-0.5 -44.5v-281h-17q0 55 -67 55q-49 0 -107 -28q-92 -45 -196 -45q-111 0 -207 43t-161 115.5t-102.5 167.5t-37.5 198z" />
    <glyph glyph-name="h" unicode="h" horiz-adv-x="1003" 
d="M41 0v6q53 0 75.5 35t22.5 117v708q0 82 -22.5 117t-75.5 35v6h319v-6q-52 0 -74 -35t-22 -117v-346h475v346q0 82 -22 117t-74 35v6h320v-6q-53 0 -76 -35.5t-23 -116.5v-708q0 -81 23 -116.5t76 -35.5v-6h-320v6q52 0 74 35t22 117v342h-475v-342q0 -82 22 -117t74 -35
v-6h-319z" />
    <glyph glyph-name="i" unicode="i" horiz-adv-x="401" 
d="M41 0v6q52 0 74 35t22 117v708q0 82 -22 117t-74 35v6h319v-6q-53 0 -75.5 -35t-22.5 -117v-708q0 -82 22.5 -117t75.5 -35v-6h-319z" />
    <glyph glyph-name="j" unicode="j" horiz-adv-x="669" 
d="M406 401v465q0 152 -97 152v6h320v-6q-99 0 -99 -152v-465q0 -227 -59 -324t-197 -97q-92 0 -152.5 42t-60.5 105q0 29 16.5 45t45.5 16q23 0 38.5 -19.5t25 -47t20.5 -55t31.5 -47t50.5 -19.5q37 0 58.5 16.5t35 63.5t18.5 121t5 200z" />
    <glyph glyph-name="k" unicode="k" horiz-adv-x="942" 
d="M41 0v6q52 0 74 35t22 117v708q0 82 -22 117t-74 35v6h317v-6q-52 0 -74 -35t-22 -117v-305l330 338q113 116 20 119v6h224v-6q-99 0 -211 -115l-324 -330l428 -438q55 -56 112.5 -92.5t90.5 -36.5v-6h-311v6q37 0 48.5 12.5t-2.5 36.5t-30 43t-45 49l-330 338v-327
q0 -82 22 -117t74 -35v-6h-317z" />
    <glyph glyph-name="l" unicode="l" horiz-adv-x="761" 
d="M41 0v6q52 0 74 35t22 117v708q0 82 -22 117t-74 35v6h317v-6q-52 0 -74 -35t-22 -117v-846h184q103 0 159.5 56.5t121.5 222.5h16l-106 -299h-596z" />
    <glyph glyph-name="m" unicode="m" horiz-adv-x="1239" 
d="M563 78l-405 901v-821q0 -82 22.5 -117t75.5 -35v-6h-215v6q52 0 74 35t22 117v708q0 82 -22 117t-74 35v6h233l351 -780l350 780h223v-6q-53 0 -75.5 -35t-22.5 -117v-708q0 -82 22.5 -117t75.5 -35v-6h-319v6q52 0 74 35t22 117v817l-404 -897h-8z" />
    <glyph glyph-name="n" unicode="n" horiz-adv-x="985" 
d="M815 0l-657 934v-776q0 -82 22.5 -117t75.5 -35v-6h-215v6q52 0 74 35t22 117v708q0 82 -22 117t-74 35v6h205l579 -825v667q0 82 -22 117t-74 35v6h215v-6q-53 0 -75.5 -35t-22.5 -117v-829z" />
    <glyph glyph-name="o" unicode="o" horiz-adv-x="1126" 
d="M31 512q0 145 71 267.5t193.5 193.5t267.5 71t268 -71t194 -193.5t71 -267.5t-71 -267.5t-194 -193.5t-268 -71t-267.5 71t-193.5 193.5t-71 267.5zM598 0q160 0 265.5 130t105.5 316q0 98 -31.5 199.5t-87 186t-140.5 138.5t-182 54q-160 0 -265 -130.5t-105 -318.5
q0 -78 19.5 -159t58 -155t90.5 -132.5t123 -93.5t149 -35z" />
    <glyph glyph-name="p" unicode="p" horiz-adv-x="755" 
d="M393 1001h-129v-512h129q219 0 219 263q0 128 -53.5 188.5t-165.5 60.5zM362 0h-321v6q53 0 75.5 35t22.5 117v708q0 82 -22.5 117t-75.5 35v6h365q161 0 240 -67t79 -205q0 -140 -80.5 -211.5t-238.5 -71.5h-142v-311q0 -82 22.5 -117t75.5 -35v-6z" />
    <glyph glyph-name="q" unicode="q" horiz-adv-x="1126" 
d="M158 512q19 -212 151.5 -362t298.5 -150q109 0 197 70t132 188t32 254q-20 209 -151.5 360.5t-299.5 151.5q-109 0 -197 -70t-131.5 -188t-31.5 -254zM31 512q0 145 71 267.5t193.5 193.5t267.5 71t268 -71t194 -193.5t71 -267.5q0 -106 -40 -203t-108.5 -167.5
t-163.5 -114t-200 -47.5q39 -42 110.5 -71.5t136.5 -29.5q58 0 130 14t122 35v-10q-78 -54 -142 -72t-157 -18q-100 0 -197 47.5t-138 116.5q-183 40 -300.5 185.5t-117.5 334.5z" />
    <glyph glyph-name="r" unicode="r" horiz-adv-x="950" 
d="M393 1001h-129v-512h129q105 0 162 74t57 189q0 118 -58 183.5t-161 65.5zM362 0h-321v6q53 0 75.5 35t22.5 117v708q0 82 -22.5 117t-75.5 35v6h365q150 0 234.5 -72t84.5 -200q0 -99 -54.5 -172t-156.5 -99q44 -9 68 -30q32 -28 52 -76t27.5 -95.5t20.5 -97.5
t30.5 -88.5t58 -63t103.5 -24.5h35v-6h-53q-137 0 -196 29.5t-82 111.5l-54 226q-12 55 -42 78.5t-89 23.5h-129v-311q0 -82 22.5 -117t75.5 -35v-6z" />
    <glyph glyph-name="s" unicode="s" horiz-adv-x="827" 
d="M152 846q0 -49 25.5 -93t61 -73.5t84.5 -55.5t83 -39t71 -24q320 -98 320 -303q0 -127 -106 -202.5t-259 -75.5q-110 0 -203.5 40.5t-140.5 108.5q-16 21 -22 21q-15 0 -15 -52h-16v246h16q0 -150 110.5 -247t276.5 -97q110 0 179 45.5t69 132.5q0 177 -309 273
q-175 53 -255.5 130.5t-80.5 182.5q0 124 95 202t245 78q172 0 297 -122q23 -23 31 -23q14 0 14 51h20v-209h-20q0 125 -102 204t-238 79q-104 0 -167.5 -48.5t-63.5 -129.5z" />
    <glyph glyph-name="t" unicode="t" horiz-adv-x="1024" 
d="M354 0v6q52 0 74.5 35t22.5 117v846h-132q-116 0 -173 -62t-85 -217h-16l57 299h822l55 -299h-16q-31 157 -86.5 218t-169.5 61h-132v-846q0 -82 22.5 -117t74.5 -35v-6h-318z" />
    <glyph glyph-name="u" unicode="u" horiz-adv-x="989" 
d="M850 360q0 -185 -90 -282.5t-260 -97.5q-175 0 -269 101t-94 290v495q0 82 -22 117t-74 35v6h319v-6q-53 0 -75.5 -35t-22.5 -117v-534q0 -152 72.5 -242t195.5 -90q132 0 215.5 90.5t83.5 235.5v540q0 82 -22 117t-74 35v6h215v-6q-53 0 -75.5 -35t-22.5 -117v-506z" />
    <glyph glyph-name="v" unicode="v" horiz-adv-x="966" 
d="M459 -2l-348 922q-37 98 -101 98v6h342v-6q-75 0 -100.5 -27t-3.5 -84l289 -782l278 741q32 85 12 118.5t-102 33.5v6h231v-6q-64 0 -100 -96l-346 -924h-51z" />
    <glyph glyph-name="w" unicode="w" horiz-adv-x="1667" 
d="M459 -2l-348 922q-37 98 -101 98v6h342v-6q-75 0 -100.5 -27t-3.5 -84l289 -782l286 762q-29 72 -63.5 101.5t-91.5 29.5v6h385v-6q-75 0 -101 -27t-4 -84l289 -782l289 770q24 65 0 94t-101 29v6h232v-6q-35 0 -62 -34.5t-59 -119.5l-326 -866h-51l-325 862l-324 -862
h-51z" />
    <glyph glyph-name="x" unicode="x" horiz-adv-x="1144" 
d="M8 0v6q100 0 195 121l289 358l-320 396q-60 74 -97 105.5t-65 31.5v6h330v-6q-41 0 -56.5 -13t-4 -39.5t24.5 -46t40 -53.5l248 -309l280 350q43 53 36 82t-62 29v6h264v-6q-123 0 -217 -119l-289 -356l322 -400q111 -137 209 -137v-6h-377v6q41 0 56.5 13t4 39.5
t-24.5 46t-40 53.5l-250 311l-250 -311q-63 -80 -67 -111q-5 -33 39 -40q11 -1 24 -1v-6h-242z" />
    <glyph glyph-name="y" unicode="y" horiz-adv-x="1077" 
d="M389 0v6q52 0 74 35t22 117v362l-278 346q-75 92 -114 122t-83 30v6h352v-6q-41 0 -56.5 -13t-3.5 -40t25 -46t40 -53l223 -276l254 317q28 35 34.5 60t-9 38t-52.5 13v6h250v-6q-106 0 -186 -100l-271 -336v-424q0 -81 23 -116.5t76 -35.5v-6h-320z" />
    <glyph glyph-name="z" unicode="z" horiz-adv-x="960" 
d="M47 20l692 984h-387q-109 0 -177 -62t-128 -217h-16l104 299h731l15 -33l-682 -971h426q103 0 159 56.5t121 222.5h17l-107 -299h-752z" />
    <glyph glyph-name="uniE001" unicode="&#xe001;" horiz-adv-x="1789" 
d="M963 115v6q59 0 90 88l288 815h43l299 -840q37 -104 97 -104v-6h-328v6q72 0 95 28.5t1 88.5l-241 673l-220 -624q-23 -68 -1.5 -96.5t94.5 -28.5v-6h-217zM268 1223q-179 0 -291 -109.5t-112 -273.5q0 -136 73 -237t166 -101v-17q-145 0 -233 90t-88 240
q0 185 131 305.5t348 120.5q145 0 266 -55.5t190.5 -152.5t69.5 -214q0 -124 -79 -218t-209 -118q83 -17 155 -92l256 -272q137 -145 264.5 -218t258.5 -73q207 0 319 170h10q-110 -264 -374 -264q-153 0 -300 85.5t-309 256.5l-264 280q-110 119 -190 119h-41v-317
q0 -82 22.5 -117t75.5 -35v-6h-322v6q53 0 76 35.5t23 116.5v708q0 81 -23 116.5t-76 35.5v6h322v-6q-53 0 -75.5 -35t-22.5 -117v-370h123q112 0 176.5 95t64.5 234q0 109 -41 197.5t-129.5 144.5t-210.5 56zM1208 463q90 0 90 94q0 -94 95 -94q-95 0 -95 -94q0 94 -90 94z
" />
    <glyph glyph-name="uniE002" unicode="&#xe002;" horiz-adv-x="1337" 
d="M977 115v6q52 0 74 34.5t22 116.5v594q0 82 -22 117t-74 35v6h319v-6q-53 0 -75.5 -35t-22.5 -117v-598q0 -80 22 -113.5t76 -33.5v-6h-319zM268 1223q-179 0 -291 -109.5t-112 -273.5q0 -136 73 -237t166 -101v-17q-145 0 -233 90t-88 240q0 185 131 305.5t348 120.5
q145 0 266 -55.5t190.5 -152.5t69.5 -214q0 -124 -79 -218t-209 -118q83 -17 155 -92l256 -272q149 -158 245 -224.5t210 -66.5q158 0 246 147h10q-49 -131 -122.5 -186t-180.5 -55q-71 0 -135 21t-131 69.5t-126.5 104t-146.5 147.5l-264 280q-75 82 -104.5 100.5
t-85.5 18.5h-41v-317q0 -82 22.5 -117t75.5 -35v-6h-322v6q53 0 76 35.5t23 116.5v708q0 81 -23 116.5t-76 35.5v6h322v-6q-53 0 -75.5 -35t-22.5 -117v-370h123q112 0 176.5 95t64.5 234q0 109 -41 197.5t-129.5 144.5t-210.5 56z" />
    <glyph glyph-name="uniE003" unicode="&#xe003;" horiz-adv-x="1882" 
d="M1722 463q0 -377 -340 -377q-50 0 -93.5 8t-85.5 25.5t-75.5 47.5t-59 71.5t-39 101.5t-13.5 133v393q0 82 -22 117t-74 35v6h319v-6q-53 0 -75.5 -35t-22.5 -117v-432q0 -44 6 -84t24.5 -84.5t47 -76.5t78 -53t114.5 -21q142 0 219.5 91.5t77.5 242.5v417q0 82 -22 117
t-74 35v6h209v-6q-53 0 -76 -35.5t-23 -116.5v-403zM268 1223q-179 0 -291 -109.5t-112 -273.5q0 -136 73 -237t166 -101v-17q-145 0 -233 90t-88 240q0 185 131 305.5t348 120.5q145 0 266 -55.5t190.5 -152.5t69.5 -214q0 -124 -79 -218t-209 -118q83 -17 155 -92
l256 -272q137 -145 264.5 -218t258.5 -73q207 0 319 170h10q-110 -264 -374 -264q-153 0 -300 85.5t-309 256.5l-264 280q-110 119 -190 119h-41v-317q0 -82 22.5 -117t75.5 -35v-6h-322v6q53 0 76 35.5t23 116.5v708q0 81 -23 116.5t-76 35.5v6h322v-6q-53 0 -75.5 -35
t-22.5 -117v-370h123q112 0 176.5 95t64.5 234q0 109 -41 197.5t-129.5 144.5t-210.5 56zM1321 549q90 0 90 94q0 -94 94 -94q-94 0 -94 -94q0 94 -90 94z" />
    <glyph glyph-name="uniE00F" unicode="&#xe00f;" horiz-adv-x="1200" 
d="M487 115v6q53 0 75 34.5t22 116.5v594q0 82 -22.5 117t-74.5 35v6h318v-6q-52 0 -74 -35t-22 -117v-731h184q102 0 158.5 56.5t122.5 224.5h16l-107 -301h-596zM61 0v6q52 0 74.5 35t22.5 117v708q0 82 -22.5 117t-74.5 35v6h318v-6q-52 0 -74 -35t-22 -117v-825
q83 0 174 -57q177 -114 270.5 -155.5t175.5 -41.5q101 0 173 48t104 136h10q-70 -282 -334 -282q-90 0 -181 38t-231 134q-204 139 -290 139h-93z" />
    </font>
</defs>
</svg>
