{"asset":{"version":"2.0","generator":"Blockbench 4.6.4 glTF exporter"},"scenes":[{"nodes":[13],"name":"blockbench_export"}],"scene":0,"nodes":[{"rotation":[0,-0.13052619222005157,0,0.9914448613738104],"translation":[0.4480191450213501,0.13952543541039028,-0.5917703554059666],"name":"mesh","mesh":0},{"rotation":[0.04730765705287522,0.7995453588836329,0.1216514382966078,0.5862509123508269],"translation":[0.7595340390869108,0.16336013898035265,0.4755995372309149],"name":"mesh","mesh":1},{"rotation":[0,0.7071067811865475,0,0.7071067811865476],"translation":[0,1.15625,0],"name":"cube","mesh":2},{"translation":[0,1.15625,0],"name":"cube","mesh":3},{"rotation":[-4.6842901408373104e-17,-0.3826834323650898,-1.130887678810001e-16,0.9238795325112867],"translation":[0,1.15625,0],"name":"cube","mesh":4},{"rotation":[8.000390764101648e-17,0.9238795325112871,8.000390764101648e-17,-0.38268343236508906],"translation":[0,1.15625,0],"name":"cube","mesh":5},{"rotation":[0,-0.3826834323650898,0,0.9238795325112867],"name":"cube","mesh":6},{"rotation":[0,-0.17364817766693033,0,0.984807753012208],"translation":[0.875,0.0375,-0.5],"name":"pyramid","mesh":7},{"name":"mesh","mesh":8},{"name":"cube","mesh":9},{"name":"mesh","mesh":10},{"name":"sphere","mesh":11},{"name":"flowerpot","children":[8,9,10,11]},{"children":[0,1,2,3,4,5,6,7,12]}],"bufferViews":[{"buffer":0,"byteOffset":0,"byteLength":12288,"target":34962,"byteStride":12},{"buffer":0,"byteOffset":12288,"byteLength":12288,"target":34962,"byteStride":12},{"buffer":0,"byteOffset":24576,"byteLength":8192,"target":34962,"byteStride":8},{"buffer":0,"byteOffset":32768,"byteLength":3072,"target":34963},{"buffer":0,"byteOffset":35840,"byteLength":7680,"target":34962,"byteStride":12},{"buffer":0,"byteOffset":43520,"byteLength":7680,"target":34962,"byteStride":12},{"buffer":0,"byteOffset":51200,"byteLength":5120,"target":34962,"byteStride":8},{"buffer":0,"byteOffset":56320,"byteLength":1920,"target":34963},{"buffer":0,"byteOffset":58240,"byteLength":288,"target":34962,"byteStride":12},{"buffer":0,"byteOffset":58528,"byteLength":288,"target":34962,"byteStride":12},{"buffer":0,"byteOffset":58816,"byteLength":192,"target":34962,"byteStride":8},{"buffer":0,"byteOffset":59008,"byteLength":72,"target":34963},{"buffer":0,"byteOffset":59080,"byteLength":288,"target":34962,"byteStride":12},{"buffer":0,"byteOffset":59368,"byteLength":288,"target":34962,"byteStride":12},{"buffer":0,"byteOffset":59656,"byteLength":192,"target":34962,"byteStride":8},{"buffer":0,"byteOffset":59848,"byteLength":72,"target":34963},{"buffer":0,"byteOffset":59920,"byteLength":288,"target":34962,"byteStride":12},{"buffer":0,"byteOffset":60208,"byteLength":288,"target":34962,"byteStride":12},{"buffer":0,"byteOffset":60496,"byteLength":192,"target":34962,"byteStride":8},{"buffer":0,"byteOffset":60688,"byteLength":72,"target":34963},{"buffer":0,"byteOffset":60760,"byteLength":288,"target":34962,"byteStride":12},{"buffer":0,"byteOffset":61048,"byteLength":288,"target":34962,"byteStride":12},{"buffer":0,"byteOffset":61336,"byteLength":192,"target":34962,"byteStride":8},{"buffer":0,"byteOffset":61528,"byteLength":72,"target":34963},{"buffer":0,"byteOffset":61600,"byteLength":288,"target":34962,"byteStride":12},{"buffer":0,"byteOffset":61888,"byteLength":288,"target":34962,"byteStride":12},{"buffer":0,"byteOffset":62176,"byteLength":192,"target":34962,"byteStride":8},{"buffer":0,"byteOffset":62368,"byteLength":72,"target":34963},{"buffer":0,"byteOffset":62440,"byteLength":192,"target":34962,"byteStride":12},{"buffer":0,"byteOffset":62632,"byteLength":192,"target":34962,"byteStride":12},{"buffer":0,"byteOffset":62824,"byteLength":128,"target":34962,"byteStride":8},{"buffer":0,"byteOffset":62952,"byteLength":36,"target":34963},{"buffer":0,"byteOffset":62988,"byteLength":1344,"target":34962,"byteStride":12},{"buffer":0,"byteOffset":64332,"byteLength":1344,"target":34962,"byteStride":12},{"buffer":0,"byteOffset":65676,"byteLength":896,"target":34962,"byteStride":8},{"buffer":0,"byteOffset":66572,"byteLength":336,"target":34963},{"buffer":0,"byteOffset":66908,"byteLength":288,"target":34962,"byteStride":12},{"buffer":0,"byteOffset":67196,"byteLength":288,"target":34962,"byteStride":12},{"buffer":0,"byteOffset":67484,"byteLength":192,"target":34962,"byteStride":8},{"buffer":0,"byteOffset":67676,"byteLength":72,"target":34963},{"buffer":0,"byteOffset":67748,"byteLength":1344,"target":34962,"byteStride":12},{"buffer":0,"byteOffset":69092,"byteLength":1344,"target":34962,"byteStride":12},{"buffer":0,"byteOffset":70436,"byteLength":896,"target":34962,"byteStride":8},{"buffer":0,"byteOffset":71332,"byteLength":336,"target":34963},{"buffer":0,"byteOffset":71668,"byteLength":3168,"target":34962,"byteStride":12},{"buffer":0,"byteOffset":74836,"byteLength":3168,"target":34962,"byteStride":12},{"buffer":0,"byteOffset":78004,"byteLength":2112,"target":34962,"byteStride":8},{"buffer":0,"byteOffset":80116,"byteLength":720,"target":34963}],"buffers":[{"byteLength":80836,"uri":"data:application/octet-stream;base64,"}],"accessors":[{"bufferView":0,"componentType":5126,"count":1024,"max":[0.11448085308074951,0.06116822734475136,-0.11749482899904251],"min":[-0.34745892882347107,-0.13952545821666718,-0.5236222743988037],"type":"VEC3"},{"bufferView":1,"componentType":5126,"count":1024,"max":[1,0.9707635045051575,1],"min":[-1,-0.9565466642379761,-1],"type":"VEC3"},{"bufferView":2,"componentType":5126,"count":1024,"max":[0.875,1],"min":[0,0.15625],"type":"VEC2"},{"bufferView":3,"componentType":5123,"count":1536,"max":[1023],"min":[0],"type":"SCALAR"},{"bufferView":4,"componentType":5126,"count":640,"max":[-0.009534039534628391,0.09950456768274307,0.3048549294471741],"min":[-0.5964738130569458,-0.22586014866828918,-0.19527320563793182],"type":"VEC3"},{"bufferView":5,"componentType":5126,"count":640,"max":[0.9745961427688599,0.9535666704177856,1],"min":[-0.9447662234306335,-0.9216907024383545,-1],"type":"VEC3"},{"bufferView":6,"componentType":5126,"count":640,"max":[0.84375,1],"min":[0,0.15625],"type":"VEC2"},{"bufferView":7,"componentType":5123,"count":960,"max":[639],"min":[0],"type":"SCALAR"},{"bufferView":8,"componentType":5126,"count":24,"max":[0.0000625000029685907,0.71875,0.390625],"min":[0,-0.65625,-0.359375],"type":"VEC3"},{"bufferView":9,"componentType":5126,"count":24,"max":[1,1,1],"min":[-1,-1,-1],"type":"VEC3"},{"bufferView":10,"componentType":5126,"count":24,"max":[0.75,1],"min":[0,0.3125],"type":"VEC2"},{"bufferView":11,"componentType":5123,"count":36,"max":[23],"min":[0],"type":"SCALAR"},{"bufferView":12,"componentType":5126,"count":24,"max":[0.0000625000029685907,0.71875,0.390625],"min":[0,-0.65625,-0.359375],"type":"VEC3"},{"bufferView":13,"componentType":5126,"count":24,"max":[1,1,1],"min":[-1,-1,-1],"type":"VEC3"},{"bufferView":14,"componentType":5126,"count":24,"max":[0.75,1],"min":[0,0.3125],"type":"VEC2"},{"bufferView":15,"componentType":5123,"count":36,"max":[23],"min":[0],"type":"SCALAR"},{"bufferView":16,"componentType":5126,"count":24,"max":[0.0000625000029685907,0.71875,0.390625],"min":[0,-0.65625,-0.359375],"type":"VEC3"},{"bufferView":17,"componentType":5126,"count":24,"max":[1,1,1],"min":[-1,-1,-1],"type":"VEC3"},{"bufferView":18,"componentType":5126,"count":24,"max":[0.75,1],"min":[0,0.3125],"type":"VEC2"},{"bufferView":19,"componentType":5123,"count":36,"max":[23],"min":[0],"type":"SCALAR"},{"bufferView":20,"componentType":5126,"count":24,"max":[0.0000625000029685907,0.71875,0.390625],"min":[0,-0.65625,-0.359375],"type":"VEC3"},{"bufferView":21,"componentType":5126,"count":24,"max":[1,1,1],"min":[-1,-1,-1],"type":"VEC3"},{"bufferView":22,"componentType":5126,"count":24,"max":[0.75,1],"min":[0,0.3125],"type":"VEC2"},{"bufferView":23,"componentType":5123,"count":36,"max":[23],"min":[0],"type":"SCALAR"},{"bufferView":24,"componentType":5126,"count":24,"max":[0.5,-0.046812500804662704,0.5],"min":[-0.5,-0.046875,-0.5],"type":"VEC3"},{"bufferView":25,"componentType":5126,"count":24,"max":[1,1,1],"min":[-1,-1,-1],"type":"VEC3"},{"bufferView":26,"componentType":5126,"count":24,"max":[0.5,1],"min":[0,0],"type":"VEC2"},{"bufferView":27,"componentType":5123,"count":36,"max":[23],"min":[0],"type":"SCALAR"},{"bufferView":28,"componentType":5126,"count":16,"max":[-1.59375,0.15000000596046448,0.84375],"min":[-1.90625,-0.03750000149011612,0.53125],"type":"VEC3"},{"bufferView":29,"componentType":5126,"count":16,"max":[0.7682212591171265,0.6401844024658203,0.7682212591171265],"min":[-0.7682212591171265,-1,-0.7682212591171265],"type":"VEC3"},{"bufferView":30,"componentType":5126,"count":16,"max":[0.8125,1],"min":[0,0.3184312582015991],"type":"VEC2"},{"bufferView":31,"componentType":5123,"count":18,"max":[15],"min":[0],"type":"SCALAR"},{"bufferView":32,"componentType":5126,"count":112,"max":[0.6875,0.875,0.6733969449996948],"min":[-0.6317949891090393,0.125,-0.6733969449996948],"type":"VEC3"},{"bufferView":33,"componentType":5126,"count":112,"max":[0.8740639090538025,0.4858110249042511,0.8532575368881226],"min":[-0.8740639686584473,-0.4858110845088959,-0.8532575368881226],"type":"VEC3"},{"bufferView":34,"componentType":5126,"count":112,"max":[0.90625,1],"min":[0,0.078125],"type":"VEC2"},{"bufferView":35,"componentType":5123,"count":168,"max":[111],"min":[0],"type":"SCALAR"},{"bufferView":36,"componentType":5126,"count":24,"max":[0.3125,0.5625,0.3125],"min":[-0.3125,0.4375,-0.3125],"type":"VEC3"},{"bufferView":37,"componentType":5126,"count":24,"max":[1,1,1],"min":[-1,-1,-1],"type":"VEC3"},{"bufferView":38,"componentType":5126,"count":24,"max":[0.984375,1],"min":[0,0.359375],"type":"VEC2"},{"bufferView":39,"componentType":5123,"count":36,"max":[23],"min":[0],"type":"SCALAR"},{"bufferView":40,"componentType":5126,"count":112,"max":[0.5,0.21875,0.4858969449996948],"min":[-0.4442950189113617,-0.03125,-0.4858969748020172],"type":"VEC3"},{"bufferView":41,"componentType":5126,"count":112,"max":[0.6422449946403503,0.7674938440322876,0.6248809695243835],"min":[-0.6422450542449951,-0.7674939036369324,-0.6248809695243835],"type":"VEC3"},{"bufferView":42,"componentType":5126,"count":112,"max":[0.9546931982040405,0.9862302541732788],"min":[0.005950033199042082,0.1875],"type":"VEC2"},{"bufferView":43,"componentType":5123,"count":168,"max":[111],"min":[0],"type":"SCALAR"},{"bufferView":44,"componentType":5126,"count":264,"max":[0.375,0.078125,0.375],"min":[-0.375,0.078125,-0.375],"type":"VEC3"},{"bufferView":45,"componentType":5126,"count":264,"max":[0,1,0],"min":[0,-1,0],"type":"VEC3"},{"bufferView":46,"componentType":5126,"count":264,"max":[0.328125,1],"min":[0,0.0625],"type":"VEC2"},{"bufferView":47,"componentType":5123,"count":360,"max":[263],"min":[0],"type":"SCALAR"}],"materials":[{"pbrMetallicRoughness":{"metallicFactor":0,"roughnessFactor":1,"baseColorTexture":{"index":0}},"alphaMode":"MASK","alphaCutoff":0.05,"doubleSided":true},{"pbrMetallicRoughness":{"metallicFactor":0,"roughnessFactor":1,"baseColorTexture":{"index":1}},"alphaMode":"MASK","alphaCutoff":0.05,"doubleSided":true},{"pbrMetallicRoughness":{"metallicFactor":0,"roughnessFactor":1,"baseColorTexture":{"index":2}},"alphaMode":"MASK","alphaCutoff":0.05,"doubleSided":true},{"pbrMetallicRoughness":{"metallicFactor":0,"roughnessFactor":1,"baseColorTexture":{"index":3}},"alphaMode":"MASK","alphaCutoff":0.05,"doubleSided":true},{"pbrMetallicRoughness":{"metallicFactor":0,"roughnessFactor":1,"baseColorTexture":{"index":4}},"alphaMode":"MASK","alphaCutoff":0.05,"doubleSided":true}],"textures":[{"sampler":0,"source":0,"name":"texture"},{"sampler":1,"source":1,"name":"texture"},{"sampler":2,"source":2,"name":"texture"},{"sampler":3,"source":3,"name":"texture"},{"sampler":4,"source":4,"name":"texture"}],"samplers":[{"magFilter":9728,"minFilter":9728,"wrapS":33071,"wrapT":33071},{"magFilter":9728,"minFilter":9728,"wrapS":33071,"wrapT":33071},{"magFilter":9728,"minFilter":9728,"wrapS":33071,"wrapT":33071},{"magFilter":9728,"minFilter":9728,"wrapS":33071,"wrapT":33071},{"magFilter":9728,"minFilter":9728,"wrapS":33071,"wrapT":33071}],"images":[{"mimeType":"image/png","uri":"data:image/png;base64,"},{"mimeType":"image/png","uri":"data:image/png;base64,"},{"mimeType":"image/png","uri":"data:image/png;base64,"},{"mimeType":"image/png","uri":"data:image/png;base64,"},{"mimeType":"image/png","uri":"data:image/png;base64,"}],"meshes":[{"primitives":[{"mode":4,"attributes":{"POSITION":0,"NORMAL":1,"TEXCOORD_0":2},"indices":3,"material":0}]},{"primitives":[{"mode":4,"attributes":{"POSITION":4,"NORMAL":5,"TEXCOORD_0":6},"indices":7,"material":0}]},{"primitives":[{"mode":4,"attributes":{"POSITION":8,"NORMAL":9,"TEXCOORD_0":10},"indices":11,"material":1}]},{"primitives":[{"mode":4,"attributes":{"POSITION":12,"NORMAL":13,"TEXCOORD_0":14},"indices":15,"material":1}]},{"primitives":[{"mode":4,"attributes":{"POSITION":16,"NORMAL":17,"TEXCOORD_0":18},"indices":19,"material":1}]},{"primitives":[{"mode":4,"attributes":{"POSITION":20,"NORMAL":21,"TEXCOORD_0":22},"indices":23,"material":1}]},{"primitives":[{"mode":4,"attributes":{"POSITION":24,"NORMAL":25,"TEXCOORD_0":26},"indices":27,"material":2}]},{"primitives":[{"mode":4,"attributes":{"POSITION":28,"NORMAL":29,"TEXCOORD_0":30},"indices":31,"material":3}]},{"primitives":[{"mode":4,"attributes":{"POSITION":32,"NORMAL":33,"TEXCOORD_0":34},"indices":35,"material":4}]},{"primitives":[{"mode":4,"attributes":{"POSITION":36,"NORMAL":37,"TEXCOORD_0":38},"indices":39,"material":4}]},{"primitives":[{"mode":4,"attributes":{"POSITION":40,"NORMAL":41,"TEXCOORD_0":42},"indices":43,"material":4}]},{"primitives":[{"mode":4,"attributes":{"POSITION":44,"NORMAL":45,"TEXCOORD_0":46},"indices":47,"material":4}]}]}